# AST/ASF file generated using VICON BodyLanguage
# -----------------------------------------------
:version 1.10
:name VICON
:units
  mass 1.0
  length 0.45
  angle deg
:documentation
   .ast/.asf automatically generated from VICON data using
   VICON BodyBuilder and BodyLanguage model FoxedUp or BRILLIANT.MOD
:root
   order TX TY TZ RX RY RZ
   axis XYZ
   position 0 0 0  
   orientation 0 0 0 
:bonedata
  begin
     id 1 
     name lhipjoint
     direction 0.621036 -0.695554 0.361275 
     length 2.46325 
     axis 0 0 0  XYZ
  end
  begin
     id 2 
     name lfemur
     direction 0.34202 -0.939693 0  
     length 6.54784  
     axis 0 0 20  XYZ
    dof rx ry rz
    limits (-160.0 20.0)
           (-70.0 70.0)
           (-60.0 70.0)
  end
  begin
     id 3 
     name ltibia
     direction 0.34202 -0.939693 0   
     length 7.84737   
     axis 0 0 20   XYZ
    dof rx
    limits (-10.0 170.0)
  end
  begin
     id 4 
     name lfoot
     direction 0.0790693 -0.217241 0.97291   
     length 2.59747   
     axis -90 7.62852e-016 20   XYZ
    dof rx rz
    limits (-45.0 90.0)
           (-70.0 20.0)
  end
  begin
     id 5 
     name ltoes
     direction 1.53572e-011 -4.21898e-011 1   
     length 1.29919   
     axis -90 7.62852e-016 20   XYZ
    dof rx
    limits (-90.0 20.0)
  end
  begin
     id 6 
     name rhipjoint
     direction -0.602353 -0.708375 0.367935   
     length 2.41867  
     axis 0 0 0  XYZ 
  end
  begin
     id 7 
     name rfemur
     direction -0.34202 -0.939693 0   
     length 6.92065   
     axis 0 0 -20   XYZ
    dof rx ry rz
    limits (-160.0 20.0)
           (-70.0 70.0)
           (-70.0 60.0)
  end
  begin
     id 8 
     name rtibia
     direction -0.34202 -0.939693 0   
     length 7.88883   
     axis 0 0 -20   XYZ
    dof rx
    limits (-10.0 170.0)
 end
 begin
     id 9 
     name rfoot
     direction -0.0768692 -0.211196 0.974416   
     length 2.43714  
     axis -90 -7.62852e-016 -20   XYZ
    dof rx rz
    limits (-45.0 90.0)
           (-20.0 70.0)
  end
  begin
     id 10 
     name rtoes
     direction -1.53575e-011 -4.21933e-011 1   
     length 1.22113   
     axis -90 -7.62852e-016 -20   XYZ
    dof rx
    limits (-90.0 20.0)
  end
  begin
     id 11 
     name lowerback
     direction 0.0197937 0.98943 -0.143655   
     length 2.16931   
     axis 0 0 0   XYZ
    dof rx ry rz
    limits (-20.0 45.0)
           (-30.0 30.0)
           (-30.0 30.0)
  end
  begin
     id 12 
     name upperback
     direction -0.00183968 0.999975 0.00684288   
     length 2.17221   
     axis 0 0 0   XYZ
    dof rx ry rz
    limits (-20.0 45.0)
           (-30.0 30.0)
           (-30.0 30.0)
  end
  begin
     id 13 
     name thorax
     direction -0.00950244 0.997208 0.0740685   
     length 2.22549   
     axis 0 0 0   XYZ
    dof rx ry rz
    limits (-20.0 45.0)
           (-30.0 30.0)
           (-30.0 30.0)
  end
  begin
     id 14 
     name lowerneck
     direction 0.0218238 0.996215 0.0841425   
     length 1.77269   
     axis 0 0 0   XYZ
    dof rx ry rz
    limits (-20.0 45.0)
           (-30.0 30.0)
           (-30.0 30.0)
  end
  begin
     id 15 
     name upperneck
     direction -0.00430652 0.994214 -0.107332   
     length 1.76534   
     axis 0 0 0   XYZ
    dof rx ry rz
    limits (-20.0 45.0)
           (-30.0 30.0)
           (-30.0 30.0)
  end
  begin
     id 16
     name head
     direction -0.00328946 0.998959 -0.0454998  
     length 1.82634  
     axis 0 0 0   XYZ
    dof rx ry rz
    limits (-20.0 45.0)
           (-30.0 30.0)
           (-30.0 30.0)
  end
  begin
     id 17 
     name lclavicle
     direction 0.970962 0.239191 0.00450212  
     length 3.84872  
     axis 0 0 0   XYZ
    dof ry rz
    limits (-20.0 10.0)
           (0.0 20.0)
  end
  begin
     id 18 
     name lhumerus
     direction 1 -4.48966e-011 5.74696e-028   
     length 5.22771   
     axis 180 -30 -90   XYZ
    dof rx ry rz
    limits (-60.0 90.0)
           (-90.0 90.0)
           (-90.0 90.0)
  end
  begin
     id 19
     name lradius
     direction 1 -4.4896e-011 4.25109e-027   
     length 3.45251   
     axis 180 -30 -90   XYZ
    dof rx
    limits (-10.0 170.0)
  end
  begin
     id 20
     name lwrist
     direction 1 -4.48971e-011 1.15382e-027   
     length 1.72626   
     axis -5.52449e-016 90 90   XYZ
    dof ry
    limits (-180.0 0.0)
 end
  begin
     id 21 
     name lhand
     direction 1 -4.49034e-011 2.30765e-027   
     length 0.552119   
     axis -1.47248e-015 90 90   XYZ
    dof rx rz
    limits (-90.0 90.0)
           (-45.0 45.0)
  end
  begin
     id 22 
     name lfingers
     direction 1 -4.48951e-011 4.61529e-027   
     length 0.445133   
     axis -2.94495e-015 90 90   XYZ
    dof rx
    limits (0.0 90.0)
  end
  begin
     id 23
     name lthumb
     direction 0.707107 -6.34991e-011 0.707107   
     length 0.639124   
     axis -90 45 2.85299e-015   XYZ
    dof rx rz
    limits (-45.0 45.0)
           (-45.0 45.0)
  end
  begin
     id 24 
     name rclavicle
     direction -0.97424 0.222511 -0.0366699   
     length 3.73439  
     axis 0 0 0   XYZ 
    dof ry rz
    limits (-10.0 20.0)
           (-20.0 0.0)
  end
  begin
     id 25 
     name rhumerus
     direction -1 -4.48956e-011 -4.97258e-028  
     length 5.2398   
     axis 180 30 90   XYZ
    dof rx ry rz
    limits (-90.0 60.0)
           (-90.0 90.0)
           (-90.0 90.0)
  end
  begin
     id 26 
     name rradius
     direction -1 -4.4897e-011 -1.72611e-027   
     length 3.48042   
     axis 180 30 90   XYZ
    dof rx
    limits (-10.0 170.0)
  end
  begin
     id 27 
     name rwrist
     direction -1 -4.48976e-011 1.15382e-027   
     length 1.74021   
     axis -5.52449e-016 -90 -90   XYZ
    dof ry
    limits (-180.0 0.0)
  end
  begin
     id 28
     name rhand
     direction -1 -4.48963e-011 2.30765e-027   
     length 0.618713   
     axis -1.47248e-015 -90 -90   XYZ
    dof rx rz
    limits (-90.0 90.0)
           (-45.0 45.0)
  end
  begin
     id 29
     name rfingers
     direction -1 -4.4888e-011 4.61529e-027   
     length 0.498823   
     axis -2.94495e-015 -90 -90   XYZ
    dof rx
    limits (0.0 90.0)
  end
  begin
     id 30
     name rthumb
     direction -0.707107 -6.34968e-011 0.707107   
     length 0.716213   
     axis -90 -45 -2.85299e-015   XYZ
    dof rx rz
    limits (-45.0 45.0)
           (-45.0 45.0)
  end
:hierarchy
  begin
    root lhipjoint rhipjoint lowerback
    lhipjoint lfemur
    lfemur ltibia
    ltibia lfoot
    lfoot ltoes
    rhipjoint rfemur
    rfemur rtibia
    rtibia rfoot
    rfoot rtoes
    lowerback upperback
    upperback thorax
    thorax lowerneck lclavicle rclavicle
    lowerneck upperneck
    upperneck head
    lclavicle lhumerus
    lhumerus lradius
    lradius lwrist
    lwrist lhand lthumb
    lhand lfingers
    rclavicle rhumerus
    rhumerus rradius
    rradius rwrist
    rwrist rhand rthumb
    rhand rfingers
  end

#!OML:ASF G:\JayActor3\Patient Classification 1\Patient 1\Session 5\male.ASF
:FULLY-SPECIFIED
:DEGREES
266
root 45.2357 16.3007 -5.51861 1.86503 -82.0251 -5.28704
lowerback 3.17811 -1.0873 0.296651
upperback 3.32187 -1.49055 -0.538601
thorax 1.60397 -0.755672 -0.693095
lowerneck -9.62457 0.936627 2.90064
upperneck 20.6366 0.531952 -0.3425
head 7.97143 0.320425 -0.565791
rclavicle 1.08338e-014 -2.5842e-015
rhumerus -36.8553 -10.9034 -85.932
rradius 29.0194
rwrist 0.251905
rhand -18.2721 -8.88536
rfingers 7.12502
rthumb 8.00773 -38.7137
lclavicle 1.08338e-014 -2.5842e-015
lhumerus -33.6699 6.87743 83.6209
lradius 23.8623
lwrist 16.7582
lhand -17.5742 13.0048
lfingers 7.12502
lthumb 8.68125 42.8063
rfemur -48.386 4.03026 21.0851
rtibia 107.337
rfoot -13.5657 -9.72712
rtoes -9.59816
lfemur -0.234632 12.4667 -24.3096
ltibia 15.5899
lfoot -14.1354 3.91369
ltoes 5.84292
267
root 45.2392 16.3093 -5.50965 1.89574 -82.0452 -5.30599
lowerback 3.19619 -1.08751 0.270706
upperback 3.29854 -1.49085 -0.540046
thorax 1.57044 -0.756271 -0.679309
lowerneck -9.61275 0.942151 2.92606
upperneck 20.6069 0.537855 -0.349409
head 7.95967 0.324594 -0.571685
rclavicle 9.93923e-015 1.78906e-015
rhumerus -36.8953 -10.9393 -85.9355
rradius 29.0847
rwrist 0.175069
rhand -18.1827 -9.0333
rfingers 7.12502
rthumb 8.09404 -38.8583
lclavicle 9.93923e-015 1.78906e-015
lhumerus -33.7308 6.94804 83.5814
lradius 23.8316
lwrist 16.6976
lhand -17.5888 13.0164
lfingers 7.12502
lthumb 8.6672 42.8185
rfemur -48.9184 3.91441 21.077
rtibia 108.552
rfoot -13.5659 -9.61877
rtoes -9.54935
lfemur 0.0532392 12.5436 -24.3282
ltibia 15.0154
lfoot -13.8836 3.81206
ltoes 6.05193
268
root 45.2423 16.3174 -5.50082 1.90158 -82.0793 -5.29798
lowerback 3.21004 -1.08375 0.241539
upperback 3.27489 -1.48591 -0.543283
thorax 1.53906 -0.75427 -0.665743
lowerneck -9.5921 0.950895 2.94344
upperneck 20.5639 0.548906 -0.349251
head 7.94188 0.331282 -0.573368
rclavicle 7.52897e-015 5.96354e-015
rhumerus -36.9333 -10.9601 -85.9463
rradius 29.15
rwrist 0.0981796
rhand -18.1021 -9.17156
rfingers 7.12502
rthumb 8.17177 -38.9935
lclavicle 7.52897e-015 5.96354e-015
lhumerus -33.7863 7.03087 83.5393
lradius 23.7935
lwrist 16.6387
lhand -17.6185 13.0576
lfingers 7.12502
lthumb 8.6385 42.8608
rfemur -49.4488 3.82521 21.0553
rtibia 109.759
rfoot -13.5443 -9.50643
rtoes -9.41318
lfemur 0.348393 12.6123 -24.354
ltibia 14.4289
lfoot -13.6311 3.73516
ltoes 6.25998
269
root 45.2453 16.3251 -5.49204 1.87548 -82.1283 -5.25969
lowerback 3.22689 -1.07497 0.210478
upperback 3.24851 -1.47427 -0.549178
thorax 1.50325 -0.748912 -0.653866
lowerneck -9.55907 0.961612 2.95341
upperneck 20.5131 0.562751 -0.340761
head 7.91931 0.339459 -0.570801
rclavicle 1.48095e-014 -1.98785e-016
rhumerus -36.976 -10.9698 -85.9624
rradius 29.218
rwrist 0.0265184
rhand -18.032 -9.29416
rfingers 7.12502
rthumb 8.23948 -39.1135
lclavicle 1.48095e-014 -1.98785e-016
lhumerus -33.8416 7.11637 83.496
lradius 23.7493
lwrist 16.5852
lhand -17.6514 13.1115
lfingers 7.12502
lthumb 8.60675 42.916
rfemur -49.9745 3.76399 21.0184
rtibia 110.957
rfoot -13.5171 -9.36657
rtoes -9.28842
lfemur 0.649566 12.6731 -24.3863
ltibia 13.84
lfoot -13.3796 3.68038
ltoes 6.45171
270
root 45.2481 16.3326 -5.48326 1.8481 -82.1842 -5.2232
lowerback 3.24922 -1.06347 0.184754
upperback 3.22139 -1.45895 -0.557584
thorax 1.46346 -0.741587 -0.647502
lowerneck -9.5259 0.976045 2.96351
upperneck 20.4608 0.581623 -0.331297
head 7.8963 0.350142 -0.567456
rclavicle 8.4732e-015 0
rhumerus -37.0203 -10.9718 -85.9856
rradius 29.2916
rwrist -0.0373901
rhand -17.9727 -9.41256
rfingers 7.12502
rthumb 8.29664 -39.2296
lclavicle 8.4732e-015 0
lhumerus -33.8948 7.20313 83.4515
lradius 23.702
lwrist 16.539
lhand -17.6818 13.1625
lfingers 7.12502
lthumb 8.5774 42.9683
rfemur -50.4932 3.71956 20.9717
rtibia 112.145
rfoot -13.5047 -9.19902
rtoes -9.42378
lfemur 0.954537 12.7268 -24.419
ltibia 13.2531
lfoot -13.1258 3.63854
ltoes 6.62698
271
root 45.2506 16.3398 -5.47471 1.98226 -82.2434 -5.35638
lowerback 3.2832 -1.05061 0.185694
upperback 3.19177 -1.44132 -0.56248
thorax 1.41408 -0.732653 -0.652243
lowerneck -9.4896 0.991947 2.97803
upperneck 20.4086 0.602691 -0.326106
head 7.87285 0.361772 -0.56608
rclavicle 1.52567e-014 -3.77691e-015
rhumerus -37.07 -10.9735 -86.0132
rradius 29.3678
rwrist -0.0865804
rhand -17.9261 -9.52219
rfingers 7.12502
rthumb 8.34161 -39.3375
lclavicle 1.52567e-014 -3.77691e-015
lhumerus -33.9501 7.29208 83.4025
lradius 23.6498
lwrist 16.4922
lhand -17.7 13.2064
lfingers 7.12502
lthumb 8.55982 43.0129
rfemur -50.9972 3.69208 20.9491
rtibia 113.314
rfoot -13.522 -9.00389
rtoes -9.89515
lfemur 1.26426 12.7786 -24.4239
ltibia 12.6716
lfoot -12.8686 3.60437
ltoes 6.76365
